<?xml version="1.0" encoding="UTF-8"?>
<svg width="102px" height="34px" viewBox="0 0 102 34" version="1.1" xmlns="http://www.w3.org/2000/svg" xmlns:xlink="http://www.w3.org/1999/xlink">
    <!-- Generator: sketchtool 59 (101010) - https://sketch.com -->
    <title>10149DE7-64D0-4602-8814-600C551F7280</title>
    <desc>Created with sketchtool.</desc>
    <g id="Page-1" stroke="none" stroke-width="1" fill="none" fill-rule="evenodd">
        <g id="desktop" transform="translate(-275.000000, -86.000000)" fill-rule="nonzero">
            <g id="navigation-2" transform="translate(0.000000, 62.000000)">
                <g id="logotype" transform="translate(275.000000, 24.000000)">
                    <path d="M82.9998311,8.10444444 C82.9998311,3.626 78.9011701,0 73.8442358,0 C72.4699679,0 71.1699848,0.264444444 70,0.746666667 L80.1231542,14 C81.9799894,12.4334946 83.0152081,10.3118836 82.9998311,8.10444444" id="Path" fill="#E14C9A"></path>
                    <path d="M0,0 L0,26.6322 C0,30.685 3.0532,34 6.8,34 L6.8,7.3678 L6.7966,7.2573 C6.7337,3.2385 3.7162,0 0,0 M25.7788,26.6186 L25.7788,26.6203 L17.272,26.6203 L17.272,20.6924 L25.7788,20.6924 C27.3445,20.6924 28.6144,22.0184 28.6144,23.6555 C28.6144,25.2926 27.3445,26.6186 25.7788,26.6186 M29.4049,13.9876 L29.4185,13.9502 C29.8225391,12.8010226 30.0283358,11.5915358 30.0271,10.3734 C30.0271,4.6852 25.6445,0.0714 20.2164,0.0085 C20.1858,0.0085 19.9784,0 19.9019,0 L10.2034,0 C10.2034,4.0392 13.2804,7.3576 17.2261,7.3831 L20.1059,7.3831 C21.6733,7.3831 22.9432,8.7091 22.9432,10.3462 C22.9432,11.9833 21.6733,13.311 20.1059,13.311 L20.1059,13.3144 L13.7139,13.3144 C11.8048,13.3246 10.2578,14.9141 10.2051,16.8997 L10.2034,16.8827 L10.2034,16.9303 L10.2,17.0034 L10.2034,17.0748 L10.2034,26.6135 C10.2034,30.6663 13.3263,33.9541 17.1938,33.9983 L17.1989,33.9983 L17.272,34 L17.3451,33.9983 L26.1086,33.9983 C31.4347,33.8164 35.7,29.2451 35.7,23.6368 C35.7,19.2474 33.0888,15.5006 29.4049,13.9876 M55.25,26.6152 C50.2061,26.6152 46.1176,22.3108 46.1176,17.0034 C46.1176,11.6943 50.2061,7.3899 55.25,7.3899 C60.2939,7.3899 64.3824,11.6943 64.3824,17.0034 C64.3824,22.3108 60.2939,26.6152 55.25,26.6152 M55.2483,0 C46.3233,0 39.1,7.6024 39.1,17 C39.1,26.3976 46.3216,34 55.2483,34 C64.1767,34 71.4,26.3976 71.4,17 C71.4,7.6024 64.1767,0 55.2483,0 M102,0.6749 C100.846449,0.229519776 99.6206444,0.000725893751 98.3841,0 C94.8345,0 91.7065,1.8394 89.8722,4.6291 L89.8705,4.6291 L82.297,16.3574 C82.297,16.3574 71.4,33.2741 71.4,33.3234 C72.5271,33.7586 73.746,33.9983 75.021,33.9983 C78.5723,33.9983 81.6986,32.1589 83.5329,29.3692 L83.5346,29.3692 L83.5346,29.3658 L86.768,24.4222 L90.0048,29.5664 C91.8476,32.2473 94.9076,34 98.3688,34 C99.6472,34 100.8712,33.762 101.9983,33.3234 L91.5501,17.0969 C93.4711,14.0879 102,0.7242 102,0.6749" id="Shape" fill="#3D3F40"></path>
                </g>
            </g>
        </g>
    </g>
</svg>